# xmcd
#
# Track frame offsets:
# 150
# 18698
# 35642
# 47846
# 63004
# 79252
# 95839
# 113415
# 132186
# 152793
#
# Disc length: 2432 seconds
#
#
# Revision: 0
# Processed by: cddbd v1.5.2PL0 Copyright (c) Steve Scherf et al.
# Submitted via: FreeRIP 2.95 
#
DISCID=7f097e0a
DTITLE=Mikel Erentxun - El corredor de la suerte - CD2
DYEAR=2006
DGENRE=Pop
TTITLE0=Arde Madrid
TTITLE1=Roma en el espejo
TTITLE2=Tarde de lluvia, mañanas de sol
TTITLE3=Generación
TTITLE4=Moneda de tres caras
TTITLE5=1977
TTITLE6=Placebo
TTITLE7=Todo llega
TTITLE8=Escribo tu pelo negro
TTITLE9=Me recuerdas a mi cuando era yo
EXTD=
EXTT0=
EXTT1=
EXTT2=
EXTT3=
EXTT4=
EXTT5=
EXTT6=
EXTT7=
EXTT8=
EXTT9=
PLAYORDER=
